<?xml version="1.0" encoding="UTF-8"?>
<svg id="_레이어_2" data-name="레이어 2" xmlns="http://www.w3.org/2000/svg" xmlns:xlink="http://www.w3.org/1999/xlink" viewBox="0 0 383.03 412.78">
  <defs>
    <style>
      .cls-1 {
        fill: url(#_무제_그라디언트_4);
      }

      .cls-2 {
        fill: url(#_무제_그라디언트_6);
      }
    </style>
    <linearGradient id="_무제_그라디언트_6" data-name="무제 그라디언트 6" x1="0" y1="289.13" x2="379.81" y2="289.13" gradientUnits="userSpaceOnUse">
      <stop offset="0" stop-color="#519872"/>
      <stop offset="1" stop-color="#e7f59e"/>
    </linearGradient>
    <linearGradient id="_무제_그라디언트_4" data-name="무제 그라디언트 4" x1="1.81" y1="122.3" x2="383.03" y2="122.3" gradientUnits="userSpaceOnUse">
      <stop offset="0" stop-color="#e7f59e"/>
      <stop offset="1" stop-color="#519872"/>
    </linearGradient>
  </defs>
  <g id="_레이어_1-2" data-name="레이어 1">
    <path class="cls-2" d="m273.06,197.94s1.65,8.79-16.48,8.79-53.85,2.2-53.85,2.2c0,0-20.88,5.49-23.08,23.08,0,0-46.7-.55-64.84,0,0,0,5.49,16.48,14.84,24.18s69.23,3.85,69.23,3.85c0,0,3.85,0,4.4,5.49s-4.4,8.79-4.4,8.79h-86.81l-76.92-95.88s-12.09-16.21-25.82-12.36-8.24,20.33-8.24,20.33c0,0,60.99,115.38,86.26,136.81s106.98,10.5,136.26,26.92c0,0,2.2-1.1,15.38,6.04s34.07,56.59,34.07,56.59c0,0,58.24-26.92,79.67-49.45s29.67-34.07,26.37-53.85l-106.04-111.54Z"/>
    <path class="cls-1" d="m109.79,214.82s-1.74-8.77,16.39-8.96c18.13-.19,53.82-2.76,53.82-2.76,0,0,20.82-5.71,22.84-23.31,0,0,46.71.07,64.83-.67,0,0-5.67-16.43-15.09-24.02-9.42-7.6-69.27-3.13-69.27-3.13,0,0-3.85.04-4.45-5.45-.61-5.49,4.3-8.84,4.3-8.84l86.81-.9,77.91,95.08s12.26,16.08,25.95,12.09c13.7-3.99,8.03-20.41,8.03-20.41,0,0-62.18-114.75-87.68-135.91-25.5-21.17-107.09-9.39-136.54-25.51,0,0-2.19,1.12-15.45-5.88C128.95,49.23,107.56,0,107.56,0c0,0-57.96,27.53-79.15,50.27C7.21,73.02-.91,84.65,2.59,104.39l107.19,110.43Z"/>
  </g>
</svg>